<svg width="200" height="200" viewBox="0 0 200 200" fill="none" xmlns="http://www.w3.org/2000/svg">
<path d="M188.415 54.0254L180.37 96.1144C179.245 95.4573 178.076 94.8799 176.87 94.3864C177.357 90.8134 177.181 88.8294 176.424 87.7034C176.534 87.5166 176.611 87.3118 176.65 87.0984C176.745 86.5967 176.638 86.0777 176.351 85.6555C176.063 85.2332 175.62 84.9424 175.118 84.8469C174.617 84.7514 174.098 84.8591 173.676 85.1464C173.253 85.4336 172.962 85.8767 172.867 86.3784C172.857 86.4364 172.847 86.4974 172.84 86.5544C171.35 87.2234 170.373 89.5054 169.389 92.2434L169.369 92.4434C163.304 91.7207 157.167 92.9614 151.859 95.9834C151.45 88.7524 153.975 79.2604 151.747 76.0834C151.861 75.8967 151.939 75.6906 151.977 75.4754C152.03 75.1998 152.022 74.9161 151.953 74.6439C151.885 74.3718 151.758 74.118 151.581 73.9001C151.404 73.6822 151.182 73.5057 150.93 73.3827C150.677 73.2598 150.401 73.1935 150.121 73.1885C149.84 73.1835 149.562 73.2398 149.306 73.3536C149.049 73.4674 148.821 73.6359 148.636 73.8473C148.452 74.0587 148.316 74.3078 148.237 74.5773C148.159 74.8468 148.141 75.1301 148.184 75.4074C143.134 78.4364 142.31 97.3184 135.735 96.2574C129.116 95.1854 138.926 68.2954 134.014 62.2214C134.165 62.0045 134.267 61.7575 134.314 61.4974C134.361 61.2491 134.36 60.9938 134.308 60.7462C134.257 60.4986 134.158 60.2635 134.016 60.0544C133.874 59.8452 133.692 59.6661 133.481 59.5272C133.269 59.3883 133.033 59.2924 132.784 59.2449C132.536 59.1974 132.281 59.1993 132.033 59.2505C131.786 59.3017 131.551 59.4011 131.341 59.5431C131.132 59.6852 130.953 59.867 130.814 60.0783C130.675 60.2895 130.579 60.5261 130.532 60.7744C130.498 60.9502 130.489 61.13 130.505 61.3084C123.22 64.9924 122.818 104.336 112.319 102.575C102.009 100.847 113.424 69.7154 108.374 63.5394C108.411 63.4421 108.439 63.3417 108.459 63.2394C108.506 62.9908 108.504 62.7353 108.453 62.4875C108.402 62.2396 108.302 62.0043 108.16 61.795C108.018 61.5856 107.836 61.4063 107.624 61.2673C107.413 61.1283 107.176 61.0324 106.927 60.9849C106.679 60.9374 106.423 60.9394 106.176 60.9907C105.928 61.0419 105.692 61.1415 105.483 61.2837C105.274 61.4259 105.094 61.608 104.955 61.8195C104.816 62.031 104.72 62.2678 104.673 62.5164C104.656 62.6079 104.646 62.7005 104.642 62.7934C97.5 65.9314 93.544 91.6384 89.376 91.0844L99.7 37.0664L188.415 54.0254ZM123.226 46.3124C123.303 45.9099 123.259 45.4936 123.099 45.1161C122.94 44.7387 122.672 44.4171 122.329 44.1919C121.987 43.9668 121.585 43.8482 121.175 43.8513C120.766 43.8543 120.366 43.9789 120.027 44.2091C119.688 44.4393 119.425 44.7649 119.271 45.1447C119.117 45.5245 119.079 45.9414 119.162 46.3427C119.245 46.744 119.445 47.1117 119.737 47.3993C120.029 47.6869 120.399 47.8815 120.802 47.9584C121.341 48.0596 121.899 47.9434 122.353 47.635C122.807 47.3266 123.121 46.8512 123.226 46.3124ZM114.556 44.6524C114.633 44.2499 114.589 43.8336 114.429 43.4561C114.27 43.0787 114.002 42.7571 113.659 42.5319C113.317 42.3068 112.915 42.1882 112.505 42.1913C112.096 42.1943 111.696 42.3189 111.357 42.5491C111.018 42.7793 110.755 43.1049 110.601 43.4847C110.447 43.8645 110.409 44.2814 110.492 44.6827C110.575 45.084 110.775 45.4517 111.067 45.7393C111.359 46.0269 111.729 46.2215 112.132 46.2984C112.672 46.4015 113.23 46.2861 113.685 45.9774C114.139 45.6687 114.453 45.1921 114.556 44.6524ZM105.888 42.9974C105.965 42.5951 105.92 42.1791 105.76 41.802C105.6 41.4249 105.332 41.1037 104.99 40.8789C104.648 40.6542 104.246 40.536 103.837 40.5392C103.427 40.5425 103.028 40.6672 102.689 40.8974C102.351 41.1276 102.088 41.4531 101.934 41.8327C101.78 42.2123 101.742 42.629 101.826 43.03C101.909 43.4311 102.109 43.7985 102.4 44.0858C102.692 44.3732 103.063 44.5676 103.465 44.6444C104.005 44.7464 104.563 44.6303 105.017 44.3216C105.471 44.0129 105.784 43.5367 105.888 42.9974Z" fill="white"/>
<path d="M186.201 100.609C191.558 105.967 194.568 113.233 194.568 120.809C194.568 128.386 191.558 135.652 186.201 141.009C180.843 146.367 173.577 149.376 166.001 149.376C158.424 149.376 151.158 146.367 145.801 141.009L166.001 120.809L186.201 100.609Z" fill="#CA3A6C"/>
<path d="M186.201 100.609L166.001 120.807L145.801 100.607C149.79 96.6229 154.868 93.9063 160.396 92.7991C165.925 91.6919 171.657 92.2434 176.873 94.3844C178.078 94.8779 179.248 95.4553 180.373 96.1124C182.502 97.3532 184.461 98.8648 186.201 100.609Z" fill="#777777"/>
<path d="M176.429 87.7047C177.186 88.8307 177.362 90.8147 176.875 94.3877C174.475 93.4009 171.952 92.7468 169.375 92.4437L169.395 92.2437C170.379 89.5057 171.356 87.2237 172.846 86.5547C172.804 86.9922 172.913 87.431 173.155 87.7981C173.397 88.1652 173.757 88.4386 174.175 88.5727C174.594 88.7069 175.046 88.6939 175.456 88.5358C175.866 88.3777 176.21 88.0841 176.43 87.7037L176.429 87.7047Z" fill="white"/>
<path d="M175.125 84.8472C175.626 84.9426 176.069 85.2334 176.356 85.6556C176.644 86.0777 176.751 86.5966 176.656 87.0982C176.617 87.3116 176.54 87.5164 176.43 87.7032C175.954 87.0432 175.244 86.5908 174.445 86.4392C173.914 86.2897 173.348 86.3303 172.845 86.5542C172.852 86.4972 172.862 86.4361 172.873 86.3781C172.92 86.1295 173.015 85.8926 173.154 85.681C173.293 85.4694 173.472 85.2873 173.681 85.145C173.89 85.0028 174.125 84.9033 174.373 84.8521C174.621 84.801 174.876 84.7993 175.125 84.8472Z" fill="#777777"/>
<path d="M176.43 87.7041C176.209 88.0845 175.866 88.3782 175.456 88.5363C175.045 88.6944 174.594 88.7074 174.175 88.5732C173.756 88.439 173.396 88.1656 173.154 87.7986C172.913 87.4315 172.804 86.9927 172.846 86.5551C173.349 86.3313 173.915 86.2906 174.446 86.4401C175.244 86.592 175.955 87.0444 176.43 87.7041Z" fill="#777777"/>
<path d="M166 120.809L145.8 141.009C143.146 138.357 141.041 135.208 139.605 131.742C138.168 128.276 137.429 124.561 137.429 120.809C137.429 117.057 138.168 113.342 139.605 109.876C141.041 106.41 143.146 103.261 145.8 100.609L166 120.809Z" fill="#9D9A9A"/>
<path d="M150.451 73.2258C150.7 73.2728 150.936 73.3684 151.148 73.5072C151.359 73.6459 151.542 73.8249 151.684 74.0341C151.826 74.2433 151.926 74.4785 151.977 74.7263C152.028 74.974 152.03 75.2294 151.982 75.4778C151.944 75.693 151.866 75.8991 151.752 76.0858C151.407 75.5703 150.875 75.2092 150.268 75.0788C149.917 74.9924 149.552 74.9772 149.195 75.0341C148.839 75.0909 148.497 75.2187 148.19 75.4098C148.142 75.1053 148.169 74.7938 148.267 74.5016C148.365 74.2094 148.532 73.9451 148.754 73.731C148.975 73.5169 149.245 73.3592 149.541 73.2713C149.836 73.1834 150.148 73.1678 150.451 73.2258Z" fill="#777777"/>
<path d="M151.752 76.0884C153.98 79.2624 151.452 88.7544 151.864 95.9884C148.17 98.0953 144.992 100.999 142.562 104.489C140.132 107.979 138.51 111.966 137.815 116.161L120.025 112.761L86.458 106.345L89.041 92.8274L89.376 91.0904C93.544 91.6444 97.499 65.9374 104.651 62.8004C104.631 63.2594 104.776 63.7103 105.06 64.0717C105.343 64.4332 105.747 64.6814 106.197 64.7715C106.648 64.8617 107.116 64.7879 107.516 64.5634C107.917 64.3389 108.225 63.9786 108.383 63.5474C113.433 69.7234 102.018 100.855 112.328 102.583C122.828 104.344 123.228 65.0004 130.514 61.3164C130.55 61.7102 130.707 62.0832 130.963 62.3847C131.218 62.6862 131.561 62.9015 131.944 63.0013C132.326 63.1011 132.73 63.0806 133.101 62.9424C133.471 62.8043 133.79 62.5553 134.014 62.2294C138.926 68.3034 129.114 95.1934 135.735 96.2654C142.31 97.3264 143.135 78.4444 148.185 75.4154C148.245 75.8087 148.425 76.1737 148.702 76.4601C148.978 76.7464 149.336 76.9401 149.727 77.0142C150.118 77.0884 150.522 77.0395 150.884 76.8742C151.246 76.7089 151.547 76.4354 151.747 76.0914L151.752 76.0884Z" fill="white"/>
<path d="M150.268 75.0784C150.875 75.2089 151.407 75.5699 151.752 76.0854C151.553 76.4294 151.251 76.7029 150.889 76.8682C150.527 77.0335 150.123 77.0825 149.732 77.0083C149.341 76.9341 148.983 76.7405 148.707 76.4541C148.431 76.1677 148.25 75.8027 148.19 75.4094C148.497 75.2183 148.839 75.0905 149.196 75.0337C149.553 74.9768 149.918 74.9921 150.268 75.0784Z" fill="#777777"/>
<path d="M132.793 59.2458C133.295 59.3423 133.738 59.6337 134.025 60.0562C134.312 60.4787 134.42 60.9978 134.325 61.4998C134.276 61.7602 134.172 62.0071 134.02 62.2238C133.548 61.6229 132.872 61.2161 132.12 61.0808C131.573 60.9729 131.006 61.054 130.511 61.3108C130.494 61.1324 130.504 60.9526 130.538 60.7768C130.585 60.528 130.681 60.291 130.82 60.0793C130.959 59.8676 131.138 59.6854 131.348 59.5431C131.557 59.4009 131.793 59.3014 132.041 59.2504C132.289 59.1994 132.544 59.1978 132.793 59.2458Z" fill="#777777"/>
<path d="M134.02 62.2247C133.796 62.5506 133.477 62.7996 133.106 62.9377C132.736 63.0758 132.332 63.0964 131.949 62.9966C131.566 62.8968 131.224 62.6815 130.968 62.38C130.712 62.0785 130.556 61.7054 130.52 61.3117C131.014 61.0549 131.582 60.9738 132.129 61.0817C132.877 61.2191 133.55 61.6256 134.02 62.2247Z" fill="#777777"/>
<path d="M121.58 43.8872C121.983 43.9638 122.355 44.1582 122.647 44.4459C122.94 44.7337 123.141 45.1017 123.224 45.5035C123.307 45.9053 123.27 46.3228 123.116 46.7031C122.962 47.0835 122.698 47.4096 122.359 47.6402C122.019 47.8708 121.619 47.9956 121.209 47.9987C120.798 48.0018 120.396 47.8831 120.054 47.6576C119.711 47.4321 119.442 47.11 119.283 46.732C119.123 46.3541 119.079 45.9372 119.156 45.5342C119.261 44.9952 119.575 44.5195 120.029 44.211C120.483 43.9024 121.041 43.786 121.58 43.8872Z" fill="#CA3A6C"/>
<path d="M112.909 42.2281C113.312 42.3048 113.683 42.4992 113.975 42.7867C114.267 43.0742 114.467 43.4419 114.55 43.8433C114.633 44.2446 114.596 44.6616 114.442 45.0415C114.288 45.4213 114.025 45.747 113.686 45.9773C113.346 46.2077 112.947 46.3323 112.537 46.3354C112.127 46.3385 111.725 46.2199 111.383 45.9948C111.041 45.7696 110.773 45.448 110.613 45.0705C110.453 44.693 110.409 44.2766 110.486 43.8741C110.589 43.3346 110.903 42.8581 111.357 42.5495C111.811 42.2408 112.37 42.1252 112.909 42.2281Z" fill="#CA3A6C"/>
<path d="M106.187 131.688L112.349 164.352L107.455 165.275L101.296 132.611L106.187 131.688Z" fill="#777777"/>
<path d="M106.936 60.9871C107.438 61.0836 107.881 61.3751 108.169 61.7979C108.456 62.2206 108.564 62.74 108.468 63.2421C108.449 63.3444 108.42 63.4448 108.383 63.5421C107.947 62.9913 107.317 62.6273 106.622 62.5241C105.953 62.4201 105.268 62.5144 104.651 62.7951C104.655 62.7022 104.666 62.6097 104.682 62.5181C104.779 62.0164 105.07 61.5733 105.493 61.2863C105.915 60.9992 106.434 60.8916 106.936 60.9871Z" fill="#777777"/>
<path d="M106.622 62.5255C107.317 62.6287 107.947 62.9927 108.383 63.5435C108.225 63.9747 107.917 64.335 107.517 64.5595C107.116 64.784 106.648 64.8578 106.197 64.7676C105.747 64.6775 105.344 64.4293 105.06 64.0678C104.776 63.7064 104.631 63.2555 104.651 62.7965C105.268 62.5157 105.953 62.4215 106.622 62.5255Z" fill="#777777"/>
<path d="M97.9531 114.903L102.846 113.98L106.188 131.696L101.296 132.619L97.9531 114.903Z" fill="#CA3A6C"/>
<path d="M104.242 40.5752C104.645 40.6519 105.016 40.8464 105.308 41.1339C105.6 41.4214 105.8 41.7891 105.883 42.1904C105.966 42.5918 105.929 43.0087 105.775 43.3886C105.621 43.7685 105.358 44.0942 105.019 44.3245C104.68 44.5548 104.28 44.6794 103.87 44.6825C103.46 44.6856 103.059 44.5671 102.716 44.3419C102.374 44.1168 102.106 43.7951 101.946 43.4176C101.786 43.0401 101.742 42.6238 101.819 42.2212C101.923 41.6821 102.236 41.2062 102.691 40.8977C103.145 40.5891 103.703 40.4732 104.242 40.5752Z" fill="#CA3A6C"/>
<path d="M95.9174 153.262L98.5024 166.962V166.965L93.6114 167.885L91.0254 154.184L95.9174 153.262Z" fill="#777777"/>
<path d="M84.1104 117.513L89.0043 116.59L95.9233 153.266L91.0303 154.189L84.1104 117.513Z" fill="#CA3A6C"/>
<path d="M80.0093 144.926L84.6573 169.575L79.7653 170.498L75.1143 145.849L80.0053 144.926H80.0093Z" fill="#777777"/>
<path d="M75.1557 119.191L80.0097 144.922H80.0057L75.1147 145.845L70.2607 120.114L75.1557 119.191Z" fill="#CA3A6C"/>
<path d="M73.576 39.984C75.0596 45.6064 74.6376 51.562 72.376 56.919C68.4822 65.9705 67.4524 75.997 69.425 85.651L69.53 86.159C69.7954 87.416 69.5704 88.727 68.9013 89.8237C68.2321 90.9204 67.1692 91.72 65.93 92.059L65.101 92.275L65.091 92.238L55.14 54.259C54.417 58.139 52.226 58.119 50.37 56.753C51.581 54.015 51.334 49.587 48.815 50.246C46.128 50.946 47.964 54.982 50.37 56.753C49.427 58.89 47.595 59.998 45.27 56.845L55.219 94.829L55.229 94.863L54.587 95.032C54.1856 95.1317 53.7736 95.1828 53.36 95.184C52.2885 95.1816 51.2455 94.8379 50.3825 94.2029C49.5194 93.5678 48.8811 92.6743 48.56 91.652C45.5526 82.0997 39.6913 73.6978 31.765 67.577C28.4444 64.9991 25.786 61.6669 24.0102 57.8566C22.2344 54.0463 21.3923 49.8676 21.5537 45.6668C21.7151 41.4661 22.8754 37.3644 24.9383 33.7016C27.0013 30.0387 29.9075 26.9203 33.4161 24.6048C36.9248 22.2893 40.9347 20.8434 45.1137 20.3869C49.2926 19.9304 53.5202 20.4765 57.446 21.9798C61.3718 23.4832 64.8828 25.9006 67.6879 29.0317C70.493 32.1627 72.5115 35.9172 73.576 39.984Z" fill="#CA3A6C"/>
<path d="M71.0248 98.6331C71.1104 98.9549 71.1316 99.2905 71.0869 99.6205C71.0423 99.9505 70.9328 100.268 70.7647 100.556C70.5966 100.843 70.3733 101.095 70.1077 101.296C69.842 101.497 69.5392 101.643 69.2168 101.726L56.6448 105.018C56.3227 105.102 55.9872 105.122 55.6574 105.077C55.3277 105.031 55.0101 104.921 54.7228 104.753C54.4356 104.585 54.1843 104.361 53.9834 104.096C53.7825 103.831 53.6358 103.528 53.5518 103.206C53.4961 102.997 53.4678 102.781 53.4678 102.564C53.4686 102.004 53.6547 101.46 53.9971 101.016C54.3395 100.573 54.819 100.255 55.3608 100.113L67.9318 96.8211C68.4813 96.6775 69.0631 96.7215 69.5848 96.9461C69.9374 97.0991 70.2504 97.3306 70.4999 97.623C70.7495 97.9153 70.929 98.2608 71.0248 98.6331Z" fill="white"/>
<path d="M64.8828 167.609L69.7758 166.688L70.8138 172.191L65.9208 173.113L64.8828 167.609Z" fill="#777777"/>
<path d="M69.7776 101.621C69.8868 102.042 69.9422 102.475 69.9426 102.909C69.941 104.029 69.5688 105.117 68.8839 106.004C68.1991 106.89 67.2401 107.525 66.1566 107.809L61.9146 108.918C61.2705 109.087 60.5994 109.128 59.9395 109.038C59.2797 108.947 58.6442 108.728 58.0693 108.392C57.4945 108.055 56.9916 107.609 56.5894 107.078C56.1872 106.547 55.8937 105.943 55.7256 105.298L69.7776 101.621Z" fill="white"/>
<path d="M61.3091 121.805L69.7731 166.682L64.8821 167.605L56.4141 122.728L61.3091 121.805Z" fill="#CA3A6C"/>
<path d="M69.7338 93.6872C69.7873 93.8973 69.8145 94.1133 69.8148 94.3302C69.815 94.8909 69.6293 95.436 69.2868 95.88C68.9443 96.324 68.4642 96.642 67.9218 96.7842L55.3508 100.076C54.9679 100.178 54.5664 100.187 54.1792 100.104C53.7919 100.02 53.4299 99.8463 53.1228 99.5961C52.8281 99.3575 52.5903 99.0563 52.4265 98.7144C52.2627 98.3724 52.177 97.9983 52.1758 97.6192C52.1766 97.059 52.3627 96.5148 52.7051 96.0715C53.0475 95.6281 53.527 95.3105 54.0688 95.1681L54.5898 95.0332L55.2318 94.8641L65.1018 92.2811L65.9308 92.0652L66.6398 91.8791C67.2898 91.7095 67.9806 91.8045 68.5606 92.1435C69.1406 92.4824 69.5625 93.0376 69.7338 93.6872Z" fill="white"/>
<path d="M65.0885 92.2457L65.0985 92.2827L55.2285 94.8657L55.2185 94.8317L45.2695 56.8477C47.5955 60.0007 49.4275 58.8927 50.3695 56.7557C52.2255 58.1217 54.4165 58.1417 55.1395 54.2617L65.0885 92.2457Z" fill="#9D9A9A"/>
<path d="M48.815 50.2496C51.334 49.5906 51.581 54.0186 50.37 56.7566C47.964 54.9856 46.128 50.9526 48.815 50.2496Z" fill="#777777"/>
<path d="M43.9857 137.677C44.5937 140.904 43.8951 144.241 42.0435 146.953C40.1919 149.666 37.3389 151.532 34.1117 152.142L33.4697 148.731C35.1313 148.418 36.6695 147.638 37.9049 146.484C39.1403 145.33 40.0219 143.848 40.4468 142.211C40.8717 140.575 40.8224 138.851 40.3047 137.241C39.7869 135.632 38.8221 134.203 37.5227 133.121L39.8547 130.555C42.0079 132.385 43.4664 134.899 43.9857 137.677Z" fill="#777777"/>
<path d="M39.8549 130.555L37.5229 133.121C36.047 131.888 34.2119 131.165 32.2917 131.062C30.3714 130.958 28.4691 131.478 26.8689 132.544C25.2687 133.611 24.0565 135.167 23.4134 136.979C22.7703 138.791 22.7308 140.763 23.3009 142.6L23.2459 142.617L19.8799 143.253C19.789 142.927 19.7122 142.598 19.6499 142.266C19.174 139.747 19.4914 137.143 20.5584 134.813C21.6253 132.483 23.3892 130.541 25.6066 129.255C27.824 127.97 30.3857 127.405 32.9381 127.637C35.4906 127.869 37.908 128.888 39.8569 130.553L39.8549 130.555Z" fill="#CA3A6C"/>
<path d="M36.7954 172.906L37.8334 178.406L28.5614 180.157L27.5234 174.653L36.7954 172.906Z" fill="#CA3A6C"/>
<path d="M35.2506 164.703L36.2886 170.203L27.0126 171.954L25.9756 166.451L35.2506 164.703Z" fill="#CA3A6C"/>
<path d="M34.8289 108.731C34.919 109.213 34.8642 109.711 34.6715 110.162C34.4788 110.612 34.1569 110.996 33.7463 111.264C33.3358 111.532 32.8551 111.672 32.3649 111.667C31.8747 111.661 31.397 111.511 30.9923 111.235C30.5875 110.958 30.2737 110.568 30.0906 110.113C29.9075 109.658 29.8633 109.159 29.9635 108.68C30.0638 108.2 30.3039 107.76 30.6538 107.417C31.0036 107.074 31.4473 106.842 31.9289 106.75C32.2494 106.69 32.5787 106.693 32.898 106.76C33.2173 106.826 33.5202 106.956 33.7895 107.14C34.0589 107.324 34.2893 107.559 34.4676 107.832C34.646 108.105 34.7688 108.411 34.8289 108.731Z" fill="#CA3A6C"/>
<path d="M33.7027 156.504L34.7407 162.003L25.4647 163.754L24.4277 158.251L33.7027 156.504Z" fill="#CA3A6C"/>
<path d="M33.4699 148.731L34.1119 152.142C31.0569 152.717 27.8971 152.123 25.2601 150.477C22.6231 148.83 20.7018 146.252 19.8779 143.255L23.2439 142.619L23.2989 142.602C23.9458 144.694 25.34 146.475 27.2158 147.605C29.0916 148.736 31.3178 149.136 33.4699 148.731Z" fill="#9D9A9A"/>
<path d="M24.4434 110.688C24.5343 111.17 24.4802 111.668 24.2881 112.119C24.096 112.571 23.7745 112.955 23.3642 113.223C22.9539 113.492 22.4732 113.632 21.9828 113.628C21.4925 113.623 21.0146 113.473 20.6094 113.197C20.2043 112.921 19.8901 112.531 19.7066 112.076C19.5231 111.621 19.4785 111.122 19.5784 110.642C19.6784 110.162 19.9184 109.723 20.2682 109.379C20.6179 109.035 21.0617 108.803 21.5434 108.711C21.8637 108.651 22.1927 108.654 22.5118 108.72C22.8309 108.787 23.1338 108.915 23.4031 109.099C23.6724 109.283 23.9029 109.517 24.0814 109.79C24.2599 110.063 24.3829 110.368 24.4434 110.688Z" fill="#FFC077"/>
<path d="M14.0594 112.649C14.1495 113.131 14.0947 113.629 13.902 114.08C13.7093 114.531 13.3873 114.914 12.9768 115.182C12.5663 115.45 12.0855 115.59 11.5953 115.585C11.1052 115.58 10.6275 115.429 10.2227 115.153C9.81795 114.876 9.50419 114.486 9.32109 114.031C9.13799 113.577 9.09376 113.078 9.19399 112.598C9.29422 112.118 9.53441 111.679 9.88423 111.335C10.234 110.992 10.6778 110.76 11.1594 110.668C11.4799 110.608 11.8093 110.611 12.1287 110.677C12.448 110.744 12.7511 110.873 13.0205 111.057C13.2899 111.241 13.5203 111.477 13.6986 111.75C13.8769 112.023 13.9995 112.329 14.0594 112.649Z" fill="#FFC077"/>
<path d="M65.9272 92.0666C67.1664 91.7275 68.2293 90.9279 68.8984 89.8312C69.5676 88.7345 69.7925 87.4236 69.5272 86.1665L69.4222 85.6585C67.4496 76.0045 68.4794 65.978 72.3732 56.9265C74.2843 52.3754 74.8838 47.3803 74.1039 42.5061C73.324 37.632 71.1958 33.0734 67.96 29.3458C64.7242 25.6182 60.5099 22.8704 55.7937 21.4132C51.0776 19.956 46.0478 19.8476 41.2732 21.1001C36.4986 22.3527 32.1698 24.9162 28.7763 28.5009C25.3828 32.0855 23.0601 36.5482 22.0708 41.3842C21.0816 46.2202 21.4652 51.2365 23.1784 55.8658C24.8916 60.4951 27.866 64.5527 31.7652 67.5796C39.6896 73.7011 45.5491 82.1029 48.5552 91.6545C48.8762 92.6769 49.5146 93.5703 50.3776 94.2054C51.2407 94.8405 52.2836 95.1841 53.3552 95.1865C53.7688 95.1853 54.1808 95.1343 54.5822 95.0346" stroke="#0400BF" stroke-width="0.32448" stroke-linecap="round" stroke-linejoin="round"/>
<path d="M53.1199 99.5976C52.8252 99.359 52.5874 99.0578 52.4236 98.7158C52.2598 98.3739 52.1741 97.9998 52.1729 97.6206C52.1737 97.0604 52.3598 96.5163 52.7022 96.0729C53.0446 95.6296 53.5241 95.312 54.0658 95.1696L54.5868 95.0346L55.2289 94.8656L65.0988 92.2826L65.9279 92.0666L66.6369 91.8806C66.9591 91.7957 67.295 91.7751 67.6252 91.82C67.9554 91.8649 68.2735 91.9745 68.5614 92.1424C68.8493 92.3103 69.1013 92.5332 69.303 92.7985C69.5046 93.0639 69.6521 93.3663 69.7368 93.6886C69.7903 93.8988 69.8175 94.1148 69.8178 94.3316C69.818 94.8924 69.6324 95.4374 69.2898 95.8814C68.9473 96.3255 68.4673 96.6434 67.9249 96.7856L55.3508 100.076C54.9679 100.177 54.5665 100.187 54.1792 100.103C53.792 100.02 53.43 99.8458 53.1229 99.5956" stroke="#0400BF" stroke-width="0.32448" stroke-linecap="round" stroke-linejoin="round"/>
<path d="M55.1406 54.2617L65.0886 92.2457" stroke="#0400BF" stroke-width="0.32448" stroke-linecap="round" stroke-linejoin="round"/>
<path d="M50.3701 56.7557C52.2261 58.1217 54.4171 58.1417 55.1401 54.2617" stroke="#0400BF" stroke-width="0.32448" stroke-linecap="round" stroke-linejoin="round"/>
<path d="M50.37 56.7566C51.581 54.0186 51.334 49.5906 48.815 50.2496C46.128 50.9526 47.964 54.9856 50.37 56.7566Z" stroke="#0400BF" stroke-width="0.32448" stroke-linecap="round" stroke-linejoin="round"/>
<path d="M55.2185 94.8299L45.2695 56.8459C47.5955 59.9989 49.4275 58.8909 50.3695 56.7539" stroke="#0400BF" stroke-width="0.32448" stroke-linecap="round" stroke-linejoin="round"/>
<path d="M69.5848 96.9461C70.0683 97.1565 70.4742 97.5124 70.7461 97.9642C71.018 98.416 71.1423 98.9413 71.1018 99.467C71.0614 99.9928 70.8581 100.493 70.5202 100.898C70.1824 101.303 69.7268 101.592 69.2168 101.726L56.6448 105.018C56.3227 105.102 55.9872 105.122 55.6574 105.077C55.3277 105.031 55.0101 104.921 54.7228 104.753C54.4356 104.585 54.1843 104.361 53.9834 104.096C53.7825 103.831 53.6358 103.528 53.5518 103.206C53.4961 102.997 53.4678 102.781 53.4678 102.564C53.4686 102.004 53.6547 101.46 53.9971 101.016C54.3395 100.573 54.819 100.255 55.3608 100.113L67.9318 96.8211C68.4813 96.6775 69.0631 96.7215 69.5848 96.9461Z" stroke="#0400BF" stroke-width="0.32448" stroke-linecap="round" stroke-linejoin="round"/>
<path d="M66.1566 107.81L61.9146 108.919C61.2705 109.088 60.5994 109.129 59.9395 109.039C59.2797 108.948 58.6442 108.729 58.0693 108.393C57.4945 108.056 56.9916 107.61 56.5894 107.079C56.1872 106.548 55.8937 105.944 55.7256 105.299L69.7776 101.621C69.8868 102.042 69.9422 102.475 69.9426 102.909C69.9413 104.029 69.5691 105.118 68.8842 106.004C68.1993 106.891 67.2402 107.526 66.1566 107.81Z" stroke="#0400BF" stroke-width="0.32448" stroke-linecap="round" stroke-linejoin="round"/>
<path d="M180.37 96.119C186.703 99.8155 191.353 105.827 193.339 112.885C195.325 119.944 194.492 127.498 191.017 133.954C187.541 140.41 181.694 145.265 174.708 147.494C167.723 149.722 160.145 149.151 153.572 145.9C146.999 142.65 141.946 136.974 139.477 130.069C137.009 123.165 137.318 115.571 140.34 108.891C143.361 102.21 148.859 96.9631 155.675 94.2576C162.49 91.552 170.089 91.5988 176.87 94.388C178.076 94.8815 179.246 95.4589 180.37 96.116" stroke="#0400BF" stroke-width="0.32448" stroke-linecap="round" stroke-linejoin="round"/>
<path d="M69.4395 96.5222L69.5034 96.5092L89.0415 92.8242" stroke="#0400BF" stroke-width="0.32448" stroke-linecap="round" stroke-linejoin="round"/>
<path d="M120.025 112.758L130.98 170.845L20.2155 191.742L4.56445 108.759L53.1195 99.5977H53.1225" stroke="white" stroke-width="0.32448" stroke-linecap="round" stroke-linejoin="round"/>
<path d="M18.4912 118.937L84.3692 106.508" stroke="white" stroke-width="0.32448" stroke-linecap="round" stroke-linejoin="round"/>
<path d="M14.0594 112.649C14.1495 113.131 14.0947 113.629 13.902 114.08C13.7093 114.531 13.3873 114.914 12.9768 115.182C12.5663 115.45 12.0855 115.59 11.5953 115.585C11.1052 115.58 10.6275 115.429 10.2227 115.153C9.81795 114.876 9.50419 114.486 9.32109 114.031C9.13799 113.577 9.09376 113.078 9.19399 112.598C9.29422 112.118 9.53441 111.679 9.88423 111.335C10.234 110.992 10.6778 110.76 11.1594 110.668C11.4799 110.608 11.8093 110.611 12.1287 110.677C12.448 110.744 12.7511 110.873 13.0205 111.057C13.2899 111.241 13.5203 111.477 13.6986 111.75C13.8769 112.023 13.9995 112.329 14.0594 112.649Z" fill="#CA3A6C" stroke="#0400BF" stroke-width="0.32448" stroke-linecap="round" stroke-linejoin="round"/>
<path d="M24.4434 110.688C24.5343 111.17 24.4802 111.668 24.2881 112.119C24.096 112.571 23.7745 112.955 23.3642 113.223C22.9539 113.492 22.4732 113.632 21.9828 113.628C21.4925 113.623 21.0146 113.473 20.6094 113.197C20.2043 112.921 19.8901 112.531 19.7066 112.076C19.5231 111.621 19.4785 111.122 19.5784 110.642C19.6784 110.162 19.9184 109.723 20.2682 109.379C20.6179 109.035 21.0617 108.803 21.5434 108.711C21.8637 108.651 22.1927 108.654 22.5118 108.72C22.8309 108.787 23.1338 108.915 23.4031 109.099C23.6724 109.283 23.9029 109.517 24.0814 109.79C24.2599 110.063 24.3829 110.368 24.4434 110.688Z" fill="#CA3A6C" stroke="#0400BF" stroke-width="0.32448" stroke-linecap="round" stroke-linejoin="round"/>
<path d="M34.8289 108.731C34.919 109.213 34.8642 109.711 34.6715 110.162C34.4788 110.612 34.1569 110.996 33.7463 111.264C33.3358 111.532 32.8551 111.672 32.3649 111.667C31.8747 111.661 31.397 111.511 30.9923 111.235C30.5875 110.958 30.2737 110.568 30.0906 110.113C29.9075 109.658 29.8633 109.159 29.9635 108.68C30.0638 108.2 30.3039 107.76 30.6538 107.417C31.0036 107.074 31.4473 106.842 31.9289 106.75C32.2494 106.69 32.5787 106.693 32.898 106.76C33.2173 106.826 33.5202 106.956 33.7895 107.14C34.0589 107.324 34.2893 107.559 34.4676 107.832C34.646 108.105 34.7688 108.411 34.8289 108.731Z" stroke="#0400BF" stroke-width="0.32448" stroke-linecap="round" stroke-linejoin="round"/>
<path d="M137.815 116.155L120.025 112.755L86.458 106.339L89.041 92.8214L89.376 91.0844L99.699 37.0664L188.415 54.0254L180.37 96.1144V96.1174" stroke="#0400BF" stroke-width="0.32448" stroke-linecap="round" stroke-linejoin="round"/>
<path d="M107.715 48.4531L178.299 61.9441" stroke="#777777" stroke-width="0.32448" stroke-linecap="round" stroke-linejoin="round"/>
<path d="M105.888 42.9988C105.812 43.4011 105.617 43.7716 105.33 44.0634C105.042 44.3552 104.675 44.5552 104.274 44.6381C103.873 44.7211 103.456 44.6833 103.076 44.5294C102.697 44.3756 102.371 44.1126 102.141 43.7738C101.911 43.435 101.786 43.0356 101.783 42.626C101.78 42.2164 101.898 41.8151 102.123 41.4728C102.348 41.1305 102.67 40.8626 103.047 40.7029C103.424 40.5432 103.84 40.499 104.242 40.5758C104.51 40.6268 104.764 40.7299 104.991 40.8792C105.219 41.0286 105.414 41.2213 105.567 41.4463C105.72 41.6713 105.827 41.9242 105.882 42.1906C105.937 42.457 105.939 42.7316 105.888 42.9988Z" stroke="#0400BF" stroke-width="0.32448" stroke-linecap="round" stroke-linejoin="round"/>
<path d="M114.556 44.6521C114.48 45.0546 114.285 45.4253 113.998 45.7173C113.71 46.0092 113.342 46.2094 112.941 46.2924C112.54 46.3755 112.123 46.3376 111.743 46.1838C111.363 46.0299 111.038 45.7668 110.807 45.4279C110.577 45.0889 110.452 44.6893 110.449 44.2795C110.446 43.8698 110.564 43.4683 110.789 43.1258C111.014 42.7833 111.336 42.5152 111.713 42.3554C112.091 42.1956 112.507 42.1513 112.909 42.2281C113.177 42.2787 113.432 42.3816 113.659 42.531C113.887 42.6803 114.083 42.8731 114.236 43.0982C114.389 43.3234 114.496 43.5766 114.551 43.8432C114.606 44.1099 114.608 44.3848 114.556 44.6521Z" stroke="#0400BF" stroke-width="0.32448" stroke-linecap="round" stroke-linejoin="round"/>
<path d="M123.227 46.3124C123.149 46.7146 122.954 47.0847 122.666 47.3761C122.378 47.6674 122.01 47.8669 121.609 47.9493C121.208 48.0317 120.791 47.9933 120.412 47.839C120.032 47.6847 119.707 47.4214 119.477 47.0823C119.247 46.7433 119.123 46.3437 119.12 45.9341C119.117 45.5245 119.236 45.1232 119.461 44.781C119.686 44.4388 120.008 44.171 120.385 44.0114C120.762 43.8518 121.178 43.8076 121.581 43.8844C122.121 43.9885 122.597 44.3027 122.906 44.7579C123.214 45.2131 123.33 45.7722 123.227 46.3124Z" stroke="#0400BF" stroke-width="0.32448" stroke-linecap="round" stroke-linejoin="round"/>
<path d="M176.43 87.7031C177.187 88.8291 177.363 90.8131 176.876 94.3861" stroke="#777777" stroke-width="0.32448" stroke-linecap="round" stroke-linejoin="round"/>
<path d="M169.395 92.2437C170.379 89.5057 171.356 87.2237 172.846 86.5547" stroke="#777777" stroke-width="0.32448" stroke-linecap="round" stroke-linejoin="round"/>
<path d="M151.753 76.0859C153.981 79.2599 151.453 88.7519 151.865 95.9859" stroke="#777777" stroke-width="0.32448" stroke-linecap="round" stroke-linejoin="round"/>
<path d="M134.02 62.2266C138.932 68.3006 129.12 95.1906 135.741 96.2626C142.316 97.3236 143.141 78.4416 148.191 75.4126" stroke="#777777" stroke-width="0.32448" stroke-linecap="round" stroke-linejoin="round"/>
<path d="M108.384 63.5435C113.434 69.7195 102.019 100.851 112.329 102.579C122.829 104.34 123.229 64.9965 130.515 61.3125" stroke="#777777" stroke-width="0.32448" stroke-linecap="round" stroke-linejoin="round"/>
<path d="M89.376 91.0869C93.544 91.6409 97.499 65.9339 104.651 62.7969" stroke="#777777" stroke-width="0.32448" stroke-linecap="round" stroke-linejoin="round"/>
<path d="M39.8549 130.553C41.3284 131.81 42.4864 133.396 43.2356 135.182C43.9848 136.969 44.3044 138.906 44.1688 140.838C44.0331 142.771 43.4459 144.644 42.4544 146.309C41.463 147.973 40.0948 149.381 38.4601 150.42C36.8253 151.46 34.9695 152.101 33.0418 152.293C31.1141 152.484 29.1684 152.221 27.361 151.524C25.5537 150.826 23.9351 149.715 22.6355 148.279C21.3358 146.842 20.3913 145.121 19.8779 143.253C19.787 142.927 19.7103 142.598 19.6479 142.266C19.172 139.747 19.4895 137.143 20.5564 134.813C21.6234 132.483 23.3872 130.541 25.6047 129.255C27.8221 127.97 30.3837 127.405 32.9362 127.637C35.4886 127.869 37.9061 128.888 39.8549 130.553Z" stroke="#0400BF" stroke-width="0.32448" stroke-linecap="round" stroke-linejoin="round"/>
<path d="M37.5223 133.119C39.0796 134.416 40.1488 136.204 40.5536 138.19C40.9585 140.176 40.675 142.24 39.7497 144.043C38.8245 145.846 37.3127 147.28 35.4634 148.109C33.6142 148.937 31.5378 149.112 29.5763 148.602C27.6148 148.093 25.8852 146.931 24.6724 145.308C23.4597 143.684 22.8361 141.696 22.9045 139.671C22.9728 137.645 23.729 135.704 25.0485 134.166C26.3679 132.628 28.1719 131.585 30.1633 131.209C31.4548 130.962 32.7852 131.005 34.058 131.335C35.3308 131.665 36.5141 132.275 37.5223 133.119Z" stroke="#0400BF" stroke-width="0.32448" stroke-linecap="round" stroke-linejoin="round"/>
<path d="M33.4697 148.73L34.1117 152.141" stroke="#0400BF" stroke-width="0.32448" stroke-linecap="round" stroke-linejoin="round"/>
<path d="M37.5225 133.121L39.8545 130.555" stroke="#0400BF" stroke-width="0.32448" stroke-linecap="round" stroke-linejoin="round"/>
<path d="M23.2439 142.617L19.8779 143.253L19.8369 143.26" stroke="#0400BF" stroke-width="0.32448" stroke-linecap="round" stroke-linejoin="round"/>
<path d="M112.349 164.35L122.554 162.424L113.255 113.125" stroke="white" stroke-width="0.32448" stroke-linecap="round" stroke-linejoin="round"/>
<path d="M98.5029 166.96L107.455 165.273" stroke="white" stroke-width="0.32448" stroke-linecap="round" stroke-linejoin="round"/>
<path d="M93.6113 167.885L98.5023 166.965" stroke="#0400BF" stroke-width="0.32448" stroke-linecap="round" stroke-linejoin="round"/>
<path d="M84.6572 169.574L93.6112 167.887" stroke="white" stroke-width="0.32448" stroke-linecap="round" stroke-linejoin="round"/>
<path d="M70.8115 172.186L79.7655 170.496" stroke="white" stroke-width="0.32448" stroke-linecap="round" stroke-linejoin="round"/>
<path d="M56.6582 174.856L65.9202 173.109" stroke="white" stroke-width="0.32448" stroke-linecap="round" stroke-linejoin="round"/>
<path d="M34.7407 162.003L25.4647 163.754L24.4277 158.251L33.7027 156.504L34.7407 162.003Z" stroke="#0400BF" stroke-width="0.32448" stroke-linecap="round" stroke-linejoin="round"/>
<path d="M36.2886 170.203L27.0126 171.954L25.9756 166.451L35.2506 164.703L36.2886 170.203Z" stroke="#0400BF" stroke-width="0.32448" stroke-linecap="round" stroke-linejoin="round"/>
<path d="M37.8334 178.406L28.5614 180.157L27.5234 174.653L36.7954 172.906L37.8334 178.406Z" stroke="#0400BF" stroke-width="0.32448" stroke-linecap="round" stroke-linejoin="round"/>
<path d="M70.8111 172.185L65.9201 173.108L64.8821 167.605L56.4141 122.728L61.3091 121.805L69.7731 166.682L70.8111 172.185Z" stroke="#0400BF" stroke-width="0.32448" stroke-linecap="round" stroke-linejoin="round"/>
<path d="M84.6577 169.571L79.7657 170.494L75.1147 145.845L70.2607 120.114L75.1557 119.191L80.0097 144.922L84.6577 169.571Z" stroke="#0400BF" stroke-width="0.32448" stroke-linecap="round" stroke-linejoin="round"/>
<path d="M98.5024 166.962L93.6114 167.885V167.882L91.0254 154.181L84.1064 117.505L88.9974 116.582L95.9174 153.259L98.5024 166.959V166.962Z" stroke="#0400BF" stroke-width="0.32448" stroke-linecap="round" stroke-linejoin="round"/>
<path d="M112.348 164.349L107.454 165.272L101.295 132.608L97.9512 114.892L102.843 113.969L106.186 131.685L112.348 164.349Z" stroke="#0400BF" stroke-width="0.32448" stroke-linecap="round" stroke-linejoin="round"/>
<path d="M64.8828 167.607L69.7738 166.684" stroke="#0400BF" stroke-width="0.32448" stroke-linecap="round" stroke-linejoin="round"/>
<path d="M75.1143 145.849L80.0053 144.926" stroke="#0400BF" stroke-width="0.32448" stroke-linecap="round" stroke-linejoin="round"/>
<path d="M91.0254 154.184L95.9174 153.262" stroke="#0400BF" stroke-width="0.32448" stroke-linecap="round" stroke-linejoin="round"/>
<path d="M101.296 132.611L106.187 131.688" stroke="#0400BF" stroke-width="0.32448" stroke-linecap="round" stroke-linejoin="round"/>
<path d="M186.199 100.609L166.001 120.807L145.804 141.004" stroke="#0400BF" stroke-width="0.32448" stroke-linecap="round" stroke-linejoin="round"/>
<path d="M145.804 100.609L166.001 120.807" stroke="#0400BF" stroke-width="0.32448" stroke-linecap="round" stroke-linejoin="round"/>
<path d="M39.6247 16.6889L37.1807 7.62891" stroke="white" stroke-width="0.32448" stroke-linecap="round" stroke-linejoin="round"/>
<path d="M50.2158 16.6894L51.2028 8.56641" stroke="white" stroke-width="0.32448" stroke-linecap="round" stroke-linejoin="round"/>
<path d="M30.2746 22.9205L24.8936 16.6875" stroke="white" stroke-width="0.32448" stroke-linecap="round" stroke-linejoin="round"/>
</svg>
