<svg width="219" height="202" viewBox="0 0 219 202" fill="none" xmlns="http://www.w3.org/2000/svg">
<path d="M52.6598 45.3906L22.5732 118.569" stroke="#CA3A6C" stroke-width="0.96" stroke-linecap="round" stroke-linejoin="round"/>
<path d="M80.2602 166.876L22.5732 118.562" stroke="#CA3A6C" stroke-width="0.96" stroke-linecap="round" stroke-linejoin="round"/>
<path d="M170.272 94.5234L140.373 151.099" stroke="#00AED9" stroke-width="0.96" stroke-linecap="round" stroke-linejoin="round"/>
<path d="M52.6611 45.3921L130.914 27.4258" stroke="#CA3A6C" stroke-width="0.96" stroke-linecap="round" stroke-linejoin="round"/>
<path d="M170.273 94.5296L130.914 27.4258" stroke="#CA3A6C" stroke-width="0.96" stroke-linecap="round" stroke-linejoin="round"/>
<path d="M170.271 94.5234L106.241 109.964L22.5732 118.565" stroke="#CA3A6C" stroke-width="0.96" stroke-linecap="round" stroke-linejoin="round"/>
<path d="M52.6611 45.3906L80.2615 166.883" stroke="#CA3A6C" stroke-width="0.96" stroke-linecap="round" stroke-linejoin="round"/>
<path d="M130.912 27.4258L106.241 109.97" stroke="#CA3A6C" stroke-width="0.96" stroke-linecap="round" stroke-linejoin="round"/>
<path d="M52.6611 45.3906L140.374 151.103" stroke="#CA3A6C" stroke-width="0.96" stroke-linecap="round" stroke-linejoin="round"/>
<path d="M140.373 151.098L80.2607 166.877" stroke="#CA3A6C" stroke-width="0.96" stroke-linecap="round" stroke-linejoin="round"/>
<path d="M22.5732 118.571L130.912 27.4258" stroke="#CA3A6C" stroke-width="0.96" stroke-linecap="round" stroke-linejoin="round"/>
<path d="M1 114.205C1 117.612 1.62228 120.986 2.8313 124.133C4.04032 127.281 5.81241 130.141 8.04639 132.55C10.2804 134.959 12.9325 136.87 15.8513 138.174C18.7702 139.477 21.8986 140.148 25.0579 140.148C28.2172 140.148 31.3456 139.477 34.2644 138.174C37.1833 136.87 39.8354 134.959 42.0694 132.55C44.3033 130.141 46.0754 127.281 47.2845 124.133C48.4935 120.986 49.1158 117.612 49.1158 114.205C49.1158 107.324 46.5811 100.726 42.0694 95.8603C37.5576 90.995 31.4384 88.2617 25.0579 88.2617C18.6773 88.2617 12.5581 90.995 8.04639 95.8603C3.53466 100.726 1 107.324 1 114.205Z" fill="#777777" stroke="#CA3A6C" stroke-width="0.96" stroke-linecap="round" stroke-linejoin="round"/>
<path d="M37.9037 120.809C37.899 120.245 37.7137 119.701 37.3791 119.268C37.0445 118.835 36.5813 118.54 36.0681 118.434V116.85C36.0886 115.276 35.8188 113.713 35.2744 112.252C34.7299 110.791 33.9217 109.461 32.8966 108.34C31.8715 107.219 30.65 106.329 29.3031 105.721C27.9563 105.114 26.5108 104.801 25.0508 104.801C23.5908 104.801 22.1454 105.114 20.7985 105.721C19.4516 106.329 18.2301 107.219 17.205 108.34C16.18 109.461 15.3717 110.791 14.8273 112.252C14.2828 113.713 14.013 115.276 14.0336 116.85V118.434C13.4983 118.542 13.0177 118.856 12.6809 119.317C12.344 119.779 12.174 120.356 12.2023 120.943C12.2305 121.529 12.4552 122.085 12.8346 122.506C13.2139 122.927 13.7222 123.186 14.2649 123.233C14.7822 125.905 16.1368 128.304 18.1011 130.026C20.0654 131.747 22.5195 132.687 25.0508 132.687C27.5821 132.687 30.0363 131.747 32.0006 130.026C33.9648 128.304 35.3195 125.905 35.8367 123.233C36.3992 123.179 36.9226 122.9 37.3048 122.452C37.687 122.004 37.9006 121.418 37.9037 120.809Z" fill="white" stroke="#CA3A6C" stroke-width="0.96" stroke-linecap="round" stroke-linejoin="round"/>
<path d="M22.3047 125.852C23.1198 126.439 24.078 126.752 25.0582 126.752C26.0384 126.752 26.9966 126.439 27.8117 125.852" stroke="#CA3A6C" stroke-width="0.96" stroke-linecap="round" stroke-linejoin="round"/>
<path d="M36.9931 113.88C37.0145 112.176 36.7216 110.484 36.1314 108.902C35.5413 107.32 34.6656 105.881 33.5554 104.667C32.4451 103.454 31.1222 102.49 29.6637 101.832C28.2052 101.175 26.64 100.836 25.0591 100.836C23.4782 100.836 21.913 101.175 20.4545 101.832C18.996 102.49 17.6732 103.454 16.5629 104.667C15.4526 105.881 14.5769 107.32 13.9868 108.902C13.3966 110.484 13.1037 112.176 13.1251 113.88V116.851C13.1251 117.113 13.2217 117.365 13.3936 117.55C13.5655 117.735 13.7987 117.839 14.0419 117.839H15.8797C16.1228 117.839 16.356 117.735 16.5279 117.55C16.6999 117.365 16.7964 117.113 16.7964 116.851C16.7973 115.672 17.0178 114.505 17.4449 113.42C17.872 112.335 18.4969 111.353 19.2825 110.533C19.4833 110.321 19.7267 110.161 19.9939 110.066C20.2612 109.972 20.545 109.945 20.8235 109.987C21.982 110.143 23.0583 110.714 23.8793 111.609C24.9642 112.815 26.3948 113.592 27.9396 113.813C29.4844 114.033 31.0531 113.686 32.3919 112.826C32.8527 113.79 33.1484 114.836 33.265 115.914C33.2913 116.172 33.4045 116.41 33.5832 116.584C33.7619 116.758 33.9936 116.854 34.2341 116.856H36.0698C36.3131 116.855 36.5463 116.75 36.7182 116.565C36.89 116.379 36.9865 116.127 36.9865 115.865L36.9931 113.88Z" fill="white" stroke="#020064" stroke-width="0.96" stroke-linecap="round" stroke-linejoin="round"/>
<path d="M36.9931 113.88C37.0145 112.176 36.7216 110.484 36.1314 108.902C35.5413 107.32 34.6656 105.881 33.5554 104.667C32.4451 103.454 31.1222 102.49 29.6637 101.832C28.2052 101.175 26.64 100.836 25.0591 100.836C23.4782 100.836 21.913 101.175 20.4545 101.832C18.996 102.49 17.6731 103.454 16.5629 104.667C15.4526 105.881 14.5769 107.32 13.9868 108.902C13.3966 110.484 13.1037 112.176 13.1251 113.88V116.851C13.1251 117.113 13.2217 117.365 13.3936 117.55C13.5655 117.735 13.7987 117.839 14.0419 117.839H15.8797C16.1228 117.839 16.356 117.735 16.5279 117.55C16.6999 117.365 16.7964 117.113 16.7964 116.851C16.7973 115.672 17.0178 114.505 17.4449 113.42C17.872 112.335 18.4969 111.353 19.2826 110.533C19.4833 110.321 19.7267 110.161 19.9939 110.066C20.2612 109.972 20.545 109.945 20.8235 109.987C21.982 110.143 23.0583 110.714 23.8793 111.609C24.9642 112.815 26.3948 113.592 27.9396 113.813C29.4844 114.033 31.0531 113.686 32.3919 112.826C32.8527 113.79 33.1484 114.836 33.265 115.914C33.2913 116.172 33.4045 116.41 33.5832 116.584C33.7619 116.758 33.9936 116.854 34.2341 116.856H36.0698C36.3131 116.855 36.5463 116.75 36.7182 116.565C36.89 116.379 36.9865 116.127 36.9865 115.865L36.9931 113.88Z" stroke="#CA3A6C" stroke-width="0.96" stroke-linecap="round" stroke-linejoin="round"/>
<path d="M32.3904 112.833C32.4874 112.771 32.5654 112.68 32.6145 112.57C32.6636 112.461 32.6817 112.338 32.6666 112.217C32.6514 112.097 32.6037 111.984 32.5294 111.892C32.455 111.801 32.3574 111.735 32.2485 111.703C30.8077 111.265 29.5606 110.284 28.7344 108.938" fill="#FFDF3D"/>
<path d="M32.3904 112.833C32.4874 112.771 32.5654 112.68 32.6145 112.57C32.6636 112.461 32.6817 112.338 32.6666 112.217C32.6514 112.097 32.6037 111.984 32.5294 111.892C32.455 111.801 32.3574 111.735 32.2485 111.703C30.8077 111.265 29.5606 110.284 28.7344 108.938" stroke="#CA3A6C" stroke-width="0.96" stroke-linecap="round" stroke-linejoin="round"/>
<path d="M19.5508 118.337C19.5508 118.532 19.5864 118.725 19.6556 118.905C19.7248 119.085 19.8263 119.249 19.9542 119.387C20.0821 119.525 20.2339 119.634 20.401 119.709C20.5681 119.784 20.7472 119.822 20.9281 119.822C21.1089 119.822 21.288 119.784 21.4551 119.709C21.6222 119.634 21.7741 119.525 21.902 119.387C22.0299 119.249 22.1313 119.085 22.2005 118.905C22.2697 118.725 22.3054 118.532 22.3054 118.337C22.3054 118.142 22.2697 117.949 22.2005 117.768C22.1313 117.588 22.0299 117.424 21.902 117.287C21.7741 117.149 21.6222 117.039 21.4551 116.965C21.288 116.89 21.1089 116.852 20.9281 116.852C20.7472 116.852 20.5681 116.89 20.401 116.965C20.2339 117.039 20.0821 117.149 19.9542 117.287C19.8263 117.424 19.7248 117.588 19.6556 117.768C19.5864 117.949 19.5508 118.142 19.5508 118.337Z" fill="#CA3A6C"/>
<path d="M27.8135 118.337C27.8135 118.731 27.9586 119.108 28.2169 119.387C28.4752 119.666 28.8255 119.822 29.1908 119.822C29.5561 119.822 29.9064 119.666 30.1647 119.387C30.423 119.108 30.5681 118.731 30.5681 118.337C30.5681 117.943 30.423 117.565 30.1647 117.287C29.9064 117.008 29.5561 116.852 29.1908 116.852C28.8255 116.852 28.4752 117.008 28.2169 117.287C27.9586 117.565 27.8135 117.943 27.8135 118.337Z" fill="#CA3A6C"/>
<path d="M25.058 101.016C26.6215 101.013 28.17 101.343 29.6153 101.986C31.0606 102.629 32.3742 103.573 33.4811 104.763C33.9692 103.938 34.2317 102.981 34.2385 102.002C34.2385 98.1749 30.1285 95.0703 25.058 95.0703C19.9876 95.0703 15.8906 98.1749 15.8906 102.002C15.8941 102.98 16.1528 103.937 16.6371 104.763C17.7437 103.573 19.0569 102.629 20.5018 101.986C21.9467 101.343 23.4949 101.013 25.058 101.016Z" fill="white" stroke="#CA3A6C" stroke-width="0.96" stroke-linecap="round" stroke-linejoin="round"/>
<path d="M105.653 26.9433C105.653 33.8239 108.188 40.4227 112.7 45.288C117.211 50.1533 123.331 52.8866 129.711 52.8866C136.092 52.8866 142.211 50.1533 146.723 45.288C151.234 40.4227 153.769 33.8239 153.769 26.9433C153.769 20.0627 151.234 13.4639 146.723 8.59862C142.211 3.7333 136.092 1 129.711 1C123.331 1 117.211 3.7333 112.7 8.59862C108.188 13.4639 105.653 20.0627 105.653 26.9433Z" fill="#777777" stroke="#CA3A6C" stroke-width="0.96" stroke-linecap="round" stroke-linejoin="round"/>
<path d="M145.315 33.678C145.309 33.0392 145.099 32.4222 144.719 31.9318C144.34 31.4414 143.814 31.1078 143.232 30.9876V29.1917C143.232 25.6216 141.917 22.1976 139.576 19.6732C137.235 17.1487 134.06 15.7305 130.749 15.7305C127.439 15.7305 124.264 17.1487 121.923 19.6732C119.582 22.1976 118.267 25.6216 118.267 29.1917V30.9876C117.659 31.1086 117.112 31.4638 116.729 31.987C116.347 32.5102 116.153 33.1657 116.185 33.8313C116.217 34.497 116.473 35.1273 116.904 35.6049C117.335 36.0825 117.912 36.3748 118.528 36.4272C119.113 39.4567 120.648 42.1766 122.874 44.1291C125.1 46.0815 127.882 47.1475 130.752 47.1475C133.621 47.1475 136.403 46.0815 138.629 44.1291C140.856 42.1766 142.39 39.4567 142.975 36.4272C143.612 36.3641 144.204 36.0477 144.637 35.5395C145.069 35.0313 145.311 34.3678 145.315 33.678Z" fill="white" stroke="#020064" stroke-width="0.96" stroke-linecap="round" stroke-linejoin="round"/>
<path d="M145.315 33.678C145.309 33.0392 145.099 32.4222 144.719 31.9318C144.34 31.4414 143.814 31.1078 143.232 30.9876V29.1917C143.232 25.6216 141.917 22.1976 139.576 19.6732C137.235 17.1487 134.06 15.7305 130.749 15.7305C127.439 15.7305 124.264 17.1487 121.923 19.6732C119.582 22.1976 118.267 25.6216 118.267 29.1917V30.9876C117.659 31.1086 117.112 31.4638 116.729 31.987C116.347 32.5102 116.153 33.1657 116.185 33.8313C116.217 34.497 116.473 35.1273 116.904 35.6049C117.335 36.0825 117.912 36.3748 118.528 36.4272C119.113 39.4567 120.648 42.1766 122.874 44.1291C125.1 46.0815 127.882 47.1475 130.752 47.1475C133.621 47.1475 136.403 46.0815 138.629 44.1291C140.856 42.1766 142.39 39.4567 142.975 36.4272C143.612 36.3641 144.204 36.0477 144.637 35.5395C145.069 35.0313 145.311 34.3678 145.315 33.678Z" stroke="#CA3A6C" stroke-width="0.96" stroke-linecap="round" stroke-linejoin="round"/>
<path d="M124.508 30.8704C124.508 31.3168 124.672 31.7449 124.965 32.0605C125.258 32.3761 125.655 32.5534 126.068 32.5534C126.482 32.5534 126.879 32.3761 127.172 32.0605C127.465 31.7449 127.629 31.3168 127.629 30.8704C127.629 30.4241 127.465 29.996 127.172 29.6804C126.879 29.3648 126.482 29.1875 126.068 29.1875C125.655 29.1875 125.258 29.3648 124.965 29.6804C124.672 29.996 124.508 30.4241 124.508 30.8704Z" fill="#CA3A6C"/>
<path d="M133.871 30.8704C133.871 31.3168 134.036 31.7449 134.328 32.0605C134.621 32.3761 135.018 32.5534 135.432 32.5534C135.846 32.5534 136.243 32.3761 136.535 32.0605C136.828 31.7449 136.992 31.3168 136.992 30.8704C136.992 30.4241 136.828 29.996 136.535 29.6804C136.243 29.3648 135.846 29.1875 135.432 29.1875C135.018 29.1875 134.621 29.3648 134.328 29.6804C134.036 29.996 133.871 30.4241 133.871 30.8704Z" fill="#CA3A6C"/>
<path d="M127.63 39.3867C128.554 40.051 129.64 40.4055 130.75 40.4055C131.861 40.4055 132.946 40.051 133.87 39.3867" stroke="#CA3A6C" stroke-width="0.96" stroke-linecap="round" stroke-linejoin="round"/>
<path d="M117.228 19.082V29.1774C117.228 29.4747 117.337 29.76 117.532 29.9704C117.726 30.1809 117.991 30.2995 118.267 30.3001H119.319L123.466 19.082H117.228Z" fill="white" stroke="#CA3A6C" stroke-width="0.96" stroke-linecap="round" stroke-linejoin="round"/>
<path d="M144.273 20.2077C144.272 17.8278 143.395 15.5456 141.834 13.863C140.274 12.1803 138.157 11.2351 135.95 11.2351H126.589C126.191 11.2352 125.802 11.1124 125.467 10.8813C125.133 10.6501 124.867 10.3204 124.7 9.93109C124.591 9.67019 124.419 9.44545 124.202 9.27998C123.986 9.11451 123.732 9.01427 123.467 8.98958H121.699C120.106 8.95636 118.558 9.55997 117.352 10.6842C116.147 11.8084 115.37 13.3737 115.171 15.0788C115.015 16.839 115.508 18.5946 116.543 19.9661C117.578 21.3375 119.072 22.2149 120.702 22.4085C120.996 23.5993 121.615 24.6676 122.478 25.4749C123.342 26.2823 124.41 26.7917 125.545 26.9371H127.627C127.71 26.9363 127.789 26.9066 127.854 26.8526C127.92 26.7985 127.966 26.723 127.988 26.6376C128.01 26.5521 128.005 26.4614 127.975 26.3791C127.944 26.2968 127.89 26.2274 127.82 26.1816C126.874 25.5729 126.186 24.591 125.901 23.4441C125.869 23.3288 125.862 23.2068 125.881 23.0881C125.9 22.9694 125.945 22.8571 126.011 22.7603C126.078 22.6636 126.165 22.585 126.264 22.5308C126.364 22.4766 126.475 22.4484 126.586 22.4485H135.086C135.359 22.4484 135.63 22.5067 135.882 22.6198C136.135 22.7329 136.364 22.8986 136.557 23.1075L142.191 29.1803H143.23C143.366 29.1806 143.502 29.1518 143.628 29.0954C143.755 29.0391 143.87 28.9564 143.966 28.8521C144.063 28.7478 144.14 28.6239 144.192 28.4875C144.244 28.3512 144.271 28.205 144.271 28.0575L144.273 20.2077Z" fill="white"/>
<path d="M144.273 20.2077C144.272 17.8278 143.395 15.5456 141.834 13.863C140.274 12.1803 138.157 11.2351 135.95 11.2351H126.589C126.191 11.2352 125.802 11.1124 125.467 10.8813C125.133 10.6501 124.867 10.3204 124.7 9.93109C124.591 9.67019 124.419 9.44545 124.202 9.27998C123.986 9.11451 123.732 9.01427 123.467 8.98958H121.699C120.106 8.95636 118.558 9.55997 117.352 10.6842C116.147 11.8084 115.37 13.3737 115.171 15.0788C115.015 16.839 115.508 18.5946 116.543 19.9661C117.578 21.3375 119.072 22.2149 120.702 22.4085C120.996 23.5993 121.615 24.6676 122.478 25.4749C123.342 26.2823 124.41 26.7917 125.545 26.9371H127.627C127.71 26.9363 127.789 26.9066 127.854 26.8526C127.92 26.7985 127.966 26.723 127.988 26.6376C128.01 26.5521 128.005 26.4614 127.975 26.3791C127.944 26.2968 127.89 26.2274 127.82 26.1816C126.874 25.5729 126.186 24.591 125.901 23.4441C125.869 23.3288 125.862 23.2068 125.881 23.0881C125.9 22.9694 125.945 22.8571 126.011 22.7603C126.078 22.6636 126.165 22.585 126.264 22.5308C126.364 22.4766 126.475 22.4484 126.586 22.4485H135.086C135.359 22.4484 135.63 22.5067 135.882 22.6198C136.135 22.7329 136.364 22.8986 136.557 23.1075L142.191 29.1803H143.23C143.366 29.1806 143.502 29.1518 143.628 29.0954C143.755 29.0391 143.87 28.9564 143.966 28.8521C144.063 28.7478 144.14 28.6239 144.192 28.4875C144.244 28.3512 144.271 28.205 144.271 28.0575L144.273 20.2077Z" stroke="#CA3A6C" stroke-width="0.96" stroke-linecap="round" stroke-linejoin="round"/>
<path d="M161.646 149.666L170.382 140.246L185.665 156.73L176.932 166.147L161.646 149.666Z" fill="white" stroke="#CA3A6C" stroke-width="0.96" stroke-linecap="round" stroke-linejoin="round"/>
<path d="M215.357 197.733L214.94 198.182C213.253 199.987 210.973 201 208.596 201C206.22 201 203.94 199.987 202.252 198.182L174.674 168.431C174.116 167.824 173.803 167.004 173.803 166.15C173.803 165.295 174.116 164.476 174.674 163.869L183.549 154.298C184.111 153.697 184.871 153.359 185.663 153.359C186.455 153.359 187.214 153.697 187.777 154.298L215.357 184.038C216.195 184.935 216.859 186.002 217.313 187.177C217.767 188.352 218 189.613 218 190.886C218 192.158 217.767 193.419 217.313 194.594C216.859 195.769 216.195 196.836 215.357 197.733Z" fill="#777777"/>
<path d="M215.357 197.733L214.94 198.182C213.253 199.987 210.973 201 208.596 201C206.22 201 203.94 199.987 202.252 198.182L174.674 168.431C174.116 167.824 173.803 167.004 173.803 166.15C173.803 165.295 174.116 164.476 174.674 163.869L183.549 154.298C184.111 153.697 184.871 153.359 185.663 153.359C186.455 153.359 187.214 153.697 187.777 154.298L215.357 184.038C216.195 184.935 216.859 186.002 217.313 187.177C217.767 188.352 218 189.613 218 190.886C218 192.158 217.767 193.419 217.313 194.594C216.859 195.769 216.195 196.836 215.357 197.733Z" stroke="#CA3A6C" stroke-width="0.96" stroke-linecap="round" stroke-linejoin="round"/>
<path d="M95.9345 140.42C99.0964 146.045 103.257 150.941 108.179 154.828C113.1 158.714 118.684 161.514 124.612 163.067C130.539 164.62 136.692 164.895 142.719 163.877C148.745 162.858 154.525 160.567 159.728 157.133C164.931 153.699 169.453 149.192 173.036 143.868C176.619 138.545 179.192 132.511 180.607 126.112C182.022 119.714 182.251 113.077 181.281 106.583C180.311 100.089 178.161 93.8656 174.955 88.2697C171.793 82.6447 167.632 77.7485 162.711 73.8621C157.79 69.9758 152.205 67.1758 146.278 65.6229C140.351 64.07 134.197 63.7948 128.171 64.8131C122.145 65.8314 116.365 68.1231 111.162 71.5567C105.959 74.9903 101.436 79.4981 97.8535 84.8215C94.2705 90.1448 91.6977 96.1789 90.2829 102.577C88.868 108.976 88.639 115.612 89.6088 122.106C90.5787 128.601 92.7283 134.824 95.9345 140.42Z" fill="#CA3A6C" stroke="#CA3A6C" stroke-width="0.96" stroke-linecap="round" stroke-linejoin="round"/>
<path d="M161.647 86.0879C166.829 91.6765 170.358 98.7967 171.788 106.548C173.217 114.3 172.483 122.334 169.679 129.636C166.874 136.937 162.124 143.178 156.031 147.569C149.937 151.959 142.773 154.303 135.444 154.303C128.115 154.303 120.951 151.959 114.857 147.569C108.763 143.178 104.013 136.937 101.209 129.636C98.4039 122.334 97.6699 114.3 99.0995 106.548C100.529 98.7967 104.058 91.6765 109.24 86.0879C112.681 82.3769 116.766 79.4332 121.262 77.4249C125.758 75.4165 130.577 74.3828 135.444 74.3828C140.31 74.3828 145.129 75.4165 149.625 77.4249C154.121 79.4332 158.206 82.3769 161.647 86.0879Z" fill="#777777"/>
<path d="M134.552 133.504C130.293 133.53 126.114 134.742 122.418 137.023C118.722 139.304 115.636 142.576 113.458 146.523C119.613 151.409 127.018 154.126 134.659 154.301C142.3 154.477 149.806 152.102 156.148 147.502C154.048 143.29 150.934 139.766 147.134 137.302C143.333 134.839 138.986 133.527 134.552 133.504Z" fill="white"/>
<path d="M134.552 133.504C130.293 133.53 126.114 134.742 122.418 137.023C118.722 139.304 115.636 142.576 113.458 146.523C119.613 151.409 127.018 154.126 134.659 154.301C142.3 154.477 149.806 152.102 156.148 147.502C154.048 143.29 150.934 139.766 147.134 137.302C143.333 134.839 138.986 133.527 134.552 133.504Z" stroke="#CA3A6C" stroke-width="0.96" stroke-linejoin="round"/>
<path d="M141.872 134.789C141.479 134.654 141.082 134.533 140.682 134.426C140.22 134.3 139.81 134.011 139.517 133.605C139.224 133.199 139.066 132.7 139.067 132.185V124.234H130.386V132.096C130.386 132.613 130.225 133.115 129.928 133.521C129.632 133.928 129.217 134.215 128.751 134.337C128.249 134.469 127.75 134.615 127.256 134.782L127.206 134.852C127.334 136.861 128.165 138.742 129.53 140.116C130.895 141.49 132.692 142.254 134.56 142.254C136.427 142.254 138.224 141.49 139.589 140.116C140.954 138.742 141.785 136.861 141.913 134.852L141.872 134.789Z" fill="white" stroke="#CA3A6C" stroke-width="0.96" stroke-linecap="round" stroke-linejoin="round"/>
<path d="M154.096 104.528C154.096 110.146 152.027 115.535 148.343 119.507C144.659 123.48 139.662 125.712 134.452 125.712C129.242 125.712 124.245 123.48 120.561 119.507C116.877 115.535 114.808 110.146 114.808 104.528C114.808 92.8157 120.352 83.6265 125.992 81.88C126.462 81.7344 126.959 81.7277 127.432 81.8606C127.905 81.9935 128.337 82.2612 128.681 82.6356C134.788 89.2591 154.096 81.0044 154.096 104.528Z" fill="white"/>
<path d="M154.096 104.528C154.096 110.146 152.027 115.535 148.343 119.507C144.659 123.48 139.662 125.712 134.452 125.712C129.242 125.712 124.245 123.48 120.561 119.507C116.877 115.535 114.808 110.146 114.808 104.528C114.808 92.8157 120.352 83.6265 125.992 81.88C126.462 81.7344 126.959 81.7277 127.432 81.8606C127.905 81.9935 128.337 82.2612 128.681 82.6356C134.788 89.2591 154.096 81.0044 154.096 104.528Z" stroke="#CA3A6C" stroke-width="0.96" stroke-linecap="round" stroke-linejoin="round"/>
<path d="M150.84 109.821L147.541 111.586L145.162 102.609C144.94 101.746 144.42 101.009 143.71 100.547C142.999 100.084 142.151 99.9329 141.34 100.123C136.808 101.287 132.085 101.287 127.552 100.123C126.741 99.9334 125.894 100.085 125.183 100.547C124.473 101.009 123.953 101.747 123.73 102.609L121.351 111.586L118.103 109.821C113.43 109.821 113.738 118.647 118.92 118.647H118.935C119.96 122.227 122.022 125.358 124.818 127.582C127.614 129.806 130.997 131.006 134.471 131.006C137.946 131.006 141.329 129.806 144.125 127.582C146.92 125.358 148.982 122.227 150.008 118.647C155.196 118.647 155.511 109.821 150.84 109.821Z" fill="white" stroke="#CA3A6C" stroke-width="0.96" stroke-linecap="round" stroke-linejoin="round"/>
<path d="M127.441 110.269C127.441 110.543 127.491 110.814 127.589 111.067C127.686 111.32 127.828 111.55 128.008 111.744C128.187 111.937 128.401 112.091 128.635 112.196C128.87 112.301 129.121 112.354 129.375 112.354C129.629 112.354 129.881 112.301 130.115 112.196C130.35 112.091 130.563 111.937 130.743 111.744C130.922 111.55 131.065 111.32 131.162 111.067C131.259 110.814 131.309 110.543 131.309 110.269C131.309 109.995 131.259 109.724 131.162 109.471C131.065 109.218 130.922 108.988 130.743 108.794C130.563 108.601 130.35 108.447 130.115 108.342C129.881 108.238 129.629 108.184 129.375 108.184C129.121 108.184 128.87 108.238 128.635 108.342C128.401 108.447 128.187 108.601 128.008 108.794C127.828 108.988 127.686 109.218 127.589 109.471C127.491 109.724 127.441 109.995 127.441 110.269Z" fill="#CA3A6C"/>
<path d="M137.664 110.269C137.664 110.822 137.868 111.353 138.23 111.744C138.593 112.135 139.085 112.354 139.598 112.354C140.111 112.354 140.603 112.135 140.965 111.744C141.328 111.353 141.532 110.822 141.532 110.269C141.532 109.716 141.328 109.186 140.965 108.794C140.603 108.403 140.111 108.184 139.598 108.184C139.085 108.184 138.593 108.403 138.23 108.794C137.868 109.186 137.664 109.716 137.664 110.269Z" fill="#CA3A6C"/>
<path d="M130.401 120.844C131.613 121.714 133.037 122.178 134.493 122.178C135.949 122.178 137.372 121.714 138.584 120.844" stroke="#CA3A6C" stroke-width="0.96" stroke-linecap="round" stroke-linejoin="round"/>
<path d="M161.647 86.0879C166.829 91.6765 170.358 98.7967 171.788 106.548C173.217 114.3 172.483 122.334 169.679 129.636C166.874 136.937 162.124 143.178 156.031 147.569C149.937 151.959 142.773 154.303 135.444 154.303C128.115 154.303 120.951 151.959 114.857 147.569C108.763 143.178 104.013 136.937 101.209 129.636C98.4039 122.334 97.6699 114.3 99.0995 106.548C100.529 98.7967 104.058 91.6765 109.24 86.0879C112.681 82.3769 116.766 79.4332 121.262 77.4249C125.758 75.4165 130.577 74.3828 135.444 74.3828C140.31 74.3828 145.129 75.4165 149.625 77.4249C154.121 79.4332 158.206 82.3769 161.647 86.0879Z" stroke="#CA3A6C" stroke-width="0.96" stroke-linecap="round" stroke-linejoin="round"/>
<path d="M64.251 162.989C64.251 167.366 65.8635 171.564 68.7338 174.66C71.604 177.755 75.497 179.494 79.5562 179.494C83.6154 179.494 87.5083 177.755 90.3786 174.66C93.2489 171.564 94.8614 167.366 94.8614 162.989C94.8614 158.612 93.2489 154.414 90.3786 151.318C87.5083 148.223 83.6154 146.484 79.5562 146.484C75.497 146.484 71.604 148.223 68.7338 151.318C65.8635 154.414 64.251 158.612 64.251 162.989Z" fill="#777777" stroke="#CA3A6C" stroke-width="0.96" stroke-linecap="round" stroke-linejoin="round"/>
<path d="M74.6318 162.61C74.6318 164.018 75.1506 165.369 76.0741 166.365C76.9976 167.36 78.2501 167.92 79.556 167.92C80.862 167.92 82.1145 167.36 83.038 166.365C83.9614 165.369 84.4802 164.018 84.4802 162.61V159.955C84.4802 158.546 83.9614 157.196 83.038 156.2C82.1145 155.204 80.862 154.645 79.556 154.645C78.2501 154.645 76.9976 155.204 76.0741 156.2C75.1506 157.196 74.6318 158.546 74.6318 159.955V162.61Z" fill="white" stroke="#CA3A6C" stroke-width="0.96" stroke-linecap="round" stroke-linejoin="round"/>
<path d="M89.7884 175.269C86.9795 177.991 83.3365 179.497 79.5602 179.497C75.7839 179.497 72.1409 177.991 69.332 175.269C70.1725 173.094 71.5909 171.235 73.4087 169.927C75.2265 168.619 77.3625 167.92 79.5479 167.918C81.7332 167.916 83.8703 168.611 85.6902 169.916C87.5101 171.221 88.9314 173.077 89.7753 175.25" fill="white"/>
<path d="M89.7884 175.269C86.9795 177.991 83.3365 179.497 79.5602 179.497C75.7839 179.497 72.1409 177.991 69.332 175.269C70.1725 173.094 71.5909 171.235 73.4087 169.927C75.2265 168.619 77.3625 167.92 79.5479 167.918C81.7332 167.916 83.8703 168.611 85.6902 169.916C87.5101 171.221 88.9314 173.077 89.7753 175.25" stroke="#CA3A6C" stroke-width="0.96" stroke-linecap="round" stroke-linejoin="round"/>
<path d="M74.6738 159.269C74.8031 158.198 75.232 157.196 75.9034 156.394C76.5748 155.593 77.4567 155.032 78.4315 154.785C79.4064 154.538 80.4278 154.618 81.3596 155.013C82.2915 155.409 83.0894 156.101 83.647 156.998C82.4818 158.216 81.0318 159.071 79.4516 159.471C77.8714 159.871 76.2201 159.801 74.6738 159.269Z" fill="white" stroke="#CA3A6C" stroke-width="0.96" stroke-linecap="round" stroke-linejoin="round"/>
<path d="M37.958 43.9305C37.958 48.3078 39.5705 52.5058 42.4408 55.601C45.3111 58.6962 49.204 60.4351 53.2632 60.4351C57.3224 60.4351 61.2153 58.6962 64.0856 55.601C66.9559 52.5058 68.5684 48.3078 68.5684 43.9305C68.5684 39.5531 66.9559 35.3551 64.0856 32.2599C61.2153 29.1647 57.3224 27.4258 53.2632 27.4258C49.204 27.4258 45.3111 29.1647 42.4408 32.2599C39.5705 35.3551 37.958 39.5531 37.958 43.9305Z" fill="#777777" stroke="#CA3A6C" stroke-width="0.96" stroke-linecap="round" stroke-linejoin="round"/>
<path d="M48.3359 43.5471C48.3631 44.9364 48.8939 46.2589 49.8146 47.2311C50.7353 48.2033 51.9726 48.7478 53.2612 48.7478C54.5498 48.7478 55.7871 48.2033 56.7079 47.2311C57.6286 46.2589 58.1594 44.9364 58.1865 43.5471V40.8921C58.1594 39.5028 57.6286 38.1803 56.7079 37.2081C55.7871 36.2359 54.5498 35.6914 53.2612 35.6914C51.9726 35.6914 50.7353 36.2359 49.8146 37.2081C48.8939 38.1803 48.3631 39.5028 48.3359 40.8921V43.5471Z" fill="white" stroke="#CA3A6C" stroke-width="0.96" stroke-linecap="round" stroke-linejoin="round"/>
<path d="M63.4925 56.199C60.683 58.9193 57.0402 60.4241 53.2643 60.4241C49.4884 60.4241 45.8457 58.9193 43.0361 56.199C43.8766 54.0236 45.295 52.1649 47.1128 50.8568C48.9306 49.5487 51.0666 48.8497 53.252 48.8477C55.4373 48.8456 57.5744 49.5408 59.3943 50.8455C61.2142 52.1502 62.6355 54.0063 63.4794 56.1802" fill="white"/>
<path d="M63.4925 56.199C60.683 58.9193 57.0402 60.4241 53.2643 60.4241C49.4884 60.4241 45.8457 58.9193 43.0361 56.199C43.8766 54.0236 45.295 52.1649 47.1128 50.8568C48.9306 49.5487 51.0666 48.8497 53.252 48.8477C55.4373 48.8456 57.5744 49.5408 59.3943 50.8455C61.2142 52.1502 62.6355 54.0063 63.4794 56.1802" stroke="#CA3A6C" stroke-width="0.96" stroke-linecap="round" stroke-linejoin="round"/>
<path d="M48.3809 40.201C48.5094 39.1297 48.938 38.1261 49.6094 37.3244C50.2809 36.5227 51.1632 35.961 52.1385 35.7144C53.1138 35.4678 54.1357 35.5479 55.0676 35.9442C55.9996 36.3404 56.7972 37.0339 57.354 37.932C56.1884 39.15 54.7384 40.0042 53.1582 40.4038C51.5781 40.8033 49.927 40.7333 48.3809 40.201Z" fill="white" stroke="#CA3A6C" stroke-width="0.96" stroke-linecap="round" stroke-linejoin="round"/>
</svg>
