<svg width="200" height="200" viewBox="0 0 200 200" fill="none" xmlns="http://www.w3.org/2000/svg">
<path d="M67.4797 177.344H60.1797V132.434H67.4757C68.1875 132.434 68.8702 132.716 69.3736 133.22C69.8769 133.723 70.1597 134.406 70.1597 135.118V174.66C70.1597 175.371 69.8769 176.054 69.3736 176.557C68.8702 177.061 68.1875 177.344 67.4757 177.344H67.4797Z" stroke="#CA3A6C" stroke-width="2" stroke-linecap="round" stroke-linejoin="round"/>
<path d="M101.766 127.445H108.42" stroke="#CA3A6C" stroke-width="2" stroke-linecap="round" stroke-linejoin="round"/>
<path d="M132.537 167.363H129.211" stroke="#CA3A6C" stroke-width="2" stroke-linecap="round" stroke-linejoin="round"/>
<path d="M135.865 154.055H132.539" stroke="#CA3A6C" stroke-width="2" stroke-linecap="round" stroke-linejoin="round"/>
<path d="M139.191 140.75H135.863" stroke="#CA3A6C" stroke-width="2" stroke-linecap="round" stroke-linejoin="round"/>
<path d="M108.272 128.09C109.514 115.662 111.158 89 100.786 89C98.8009 89.0005 96.8974 89.7895 95.4939 91.1933C94.0904 92.5971 93.302 94.5009 93.302 96.486V98.98C93.302 117.278 85.366 136.406 70.016 136.406L70 174.662H71.964C81.564 174.662 86.098 181.316 103.282 181.316H132.39C133.497 181.336 134.591 181.08 135.573 180.57C136.556 180.061 137.396 179.314 138.017 178.398C138.638 177.481 139.02 176.425 139.129 175.323C139.238 174.222 139.071 173.11 138.642 172.09C138.128 170.862 137.257 169.817 136.143 169.09C135.028 168.363 133.721 167.986 132.39 168.01H135.716C137.481 168.01 139.173 167.309 140.421 166.061C141.669 164.813 142.37 163.121 142.37 161.356C142.37 159.591 141.669 157.899 140.421 156.651C139.173 155.403 137.481 154.702 135.716 154.702H139.052C140.797 154.672 142.459 153.958 143.682 152.713C144.905 151.469 145.591 149.794 145.591 148.049C145.591 146.304 144.905 144.629 143.682 143.385C142.459 142.14 140.797 141.426 139.052 141.396H142.378C143.485 141.416 144.579 141.16 145.561 140.65C146.544 140.141 147.384 139.394 148.005 138.478C148.626 137.561 149.008 136.505 149.117 135.403C149.226 134.302 149.059 133.19 148.63 132.17C148.115 130.943 147.245 129.898 146.13 129.171C145.016 128.443 143.709 128.067 142.378 128.09H108.272Z" stroke="#CA3A6C" stroke-width="3" stroke-linecap="round" stroke-linejoin="round"/>
<path d="M40 129H56.632C57.5146 129 58.3611 129.351 58.9853 129.975C59.6094 130.599 59.96 131.445 59.96 132.328V177.238C59.9595 178.12 59.6086 178.966 58.9845 179.59C58.3605 180.214 57.5143 180.564 56.632 180.564H40" stroke="#CA3A6C" stroke-width="3" stroke-linecap="round" stroke-linejoin="round"/>
<path d="M97.0122 21.5703C97.2441 21.099 97.6034 20.7022 98.0493 20.4246C98.4952 20.1471 99.01 20 99.5352 20C100.06 20 100.575 20.1471 101.021 20.4246C101.467 20.7022 101.826 21.099 102.058 21.5703L107.148 31.8863C107.35 32.2953 107.649 32.649 108.018 32.917C108.388 33.1849 108.817 33.359 109.268 33.4243L120.654 35.0803C121.174 35.1557 121.662 35.375 122.064 35.7135C122.465 36.0519 122.764 36.4959 122.926 36.9954C123.089 37.4948 123.108 38.0297 122.982 38.5395C122.856 39.0493 122.59 39.5138 122.214 39.8803L113.972 47.9103C113.647 48.2301 113.405 48.6239 113.266 49.0579C113.126 49.4919 113.094 49.9532 113.172 50.4023L115.116 61.7443C115.206 62.2618 115.148 62.794 114.951 63.2806C114.753 63.7672 114.423 64.1888 113.998 64.4975C113.573 64.8062 113.07 64.9898 112.547 65.0274C112.023 65.065 111.499 64.9552 111.034 64.7103L100.85 59.3563C100.446 59.1435 99.9967 59.0323 99.5402 59.0323C99.0837 59.0323 98.6341 59.1435 98.2302 59.3563L88.0402 64.7103C87.5756 64.9552 87.0517 65.065 86.5278 65.0274C86.004 64.9898 85.5012 64.8062 85.0763 64.4975C84.6514 64.1888 84.3215 63.7672 84.1239 63.2806C83.9263 62.794 83.8689 62.2618 83.9582 61.7443L85.9022 50.4023C85.9798 49.9524 85.9466 49.4903 85.8055 49.0561C85.6643 48.6219 85.4195 48.2286 85.0922 47.9103L76.8522 39.8803C76.4754 39.5141 76.2087 39.0496 76.0824 38.5396C75.9561 38.0295 75.9753 37.4943 76.1377 36.9946C76.3001 36.4949 76.5993 36.0506 77.0013 35.7123C77.4033 35.3739 77.8921 35.155 78.4122 35.0803L89.7982 33.4243C90.2502 33.3602 90.6796 33.1865 91.0491 32.9185C91.4186 32.6504 91.717 32.2961 91.9182 31.8863L97.0122 21.5703Z" stroke="#CA3A6C" stroke-width="3" stroke-linecap="round" stroke-linejoin="round"/>
<path d="M39.1017 45.5395C39.0623 45.1072 39.1445 44.6724 39.3391 44.2844C39.5338 43.8963 39.833 43.5704 40.2031 43.3435C40.5731 43.1165 40.9993 42.9976 41.4334 43C41.8675 43.0025 42.2923 43.1263 42.6597 43.3575L50.7017 48.4275C51.0207 48.6288 51.3839 48.7493 51.76 48.7786C52.136 48.8079 52.5135 48.745 52.8597 48.5955L61.5997 44.8415C61.9985 44.6699 62.4374 44.6134 62.8666 44.6783C63.2959 44.7431 63.6984 44.9269 64.0287 45.2086C64.359 45.4904 64.6038 45.859 64.7355 46.2727C64.8671 46.6864 64.8804 47.1287 64.7737 47.5495L62.4377 56.7695C62.3456 57.1353 62.3435 57.518 62.4317 57.8847C62.5198 58.2515 62.6955 58.5915 62.9437 58.8755L69.2177 66.0275C69.5039 66.3541 69.6929 66.7544 69.7634 67.1829C69.8339 67.6114 69.783 68.0511 69.6165 68.4521C69.45 68.8532 69.1745 69.1997 68.8213 69.4523C68.468 69.7049 68.0511 69.8536 67.6177 69.8815L58.1277 70.5115C57.7514 70.5365 57.3867 70.6526 57.0651 70.8498C56.7435 71.047 56.4747 71.3194 56.2817 71.6435L51.4177 79.8175C51.1958 80.1903 50.8739 80.4935 50.4887 80.693C50.1034 80.8924 49.67 80.9802 49.2375 80.9463C48.8049 80.9123 48.3905 80.7581 48.041 80.5011C47.6915 80.244 47.4209 79.8943 47.2597 79.4915L43.7277 70.6595C43.5869 70.3101 43.3634 70.0002 43.0763 69.7563C42.7893 69.5125 42.4473 69.342 42.0797 69.2595L32.8117 67.1555C32.3885 67.0595 32.0006 66.8471 31.6918 66.5422C31.383 66.2373 31.1656 65.8521 31.0643 65.4302C30.963 65.0082 30.9817 64.5663 31.1184 64.1544C31.2551 63.7426 31.5042 63.3772 31.8377 63.0995L39.1457 57.0115C39.4358 56.7704 39.6628 56.4623 39.8071 56.1139C39.9513 55.7654 40.0085 55.387 39.9737 55.0115L39.1017 45.5395Z" stroke="#CA3A6C" stroke-width="3" stroke-linecap="round" stroke-linejoin="round"/>
<path d="M10.3175 92.2456C10.1275 91.9711 10.0182 91.6489 10.0021 91.3154C9.98597 90.982 10.0636 90.6506 10.2263 90.3591C10.3889 90.0675 10.63 89.8274 10.9222 89.666C11.2144 89.5045 11.5461 89.4282 11.8795 89.4456L19.1655 89.8176C19.4546 89.8327 19.7431 89.777 20.0059 89.6554C20.2687 89.5338 20.4978 89.3499 20.6735 89.1196L25.1135 83.3196C25.3159 83.0556 25.5881 82.8534 25.8994 82.736C26.2107 82.6185 26.5486 82.5904 26.875 82.6549C27.2014 82.7194 27.5033 82.8739 27.7465 83.1009C27.9898 83.3279 28.1646 83.6185 28.2515 83.9396L30.1515 90.9876C30.2279 91.2663 30.3703 91.5224 30.5667 91.7344C30.763 91.9464 31.0075 92.1081 31.2795 92.2056L38.1615 94.6356C38.4767 94.7451 38.7549 94.941 38.9641 95.201C39.1734 95.4609 39.3054 95.7745 39.345 96.1058C39.3847 96.4372 39.3303 96.773 39.1882 97.075C39.0461 97.377 38.822 97.6329 38.5415 97.8136L32.4275 101.802C32.1866 101.96 31.9879 102.175 31.8486 102.428C31.7092 102.681 31.6333 102.963 31.6275 103.252L31.4415 110.548C31.4325 110.88 31.3308 111.204 31.1479 111.481C30.965 111.759 30.7081 111.98 30.4062 112.12C30.1044 112.26 29.7695 112.313 29.4393 112.272C29.1091 112.232 28.7968 112.1 28.5375 111.892L22.8575 107.306C22.6316 107.125 22.3656 107.001 22.0818 106.945C21.7981 106.889 21.505 106.902 21.2275 106.984L14.2275 109.062C13.9088 109.157 13.5698 109.161 13.2488 109.074C12.9278 108.987 12.6376 108.812 12.4109 108.569C12.1842 108.325 12.03 108.023 11.9658 107.697C11.9015 107.371 11.9298 107.033 12.0475 106.722L14.6475 99.9056C14.7509 99.6351 14.7867 99.3434 14.7519 99.0559C14.717 98.7683 14.6125 98.4936 14.4475 98.2556L10.3175 92.2456Z" stroke="#CA3A6C" stroke-width="3" stroke-linecap="round" stroke-linejoin="round"/>
<path d="M160.692 45.5413C160.733 45.1088 160.651 44.6736 160.457 44.2851C160.262 43.8966 159.963 43.5703 159.592 43.3432C159.222 43.1161 158.796 42.9972 158.361 43.0001C157.927 43.0029 157.502 43.1274 157.134 43.3593L149.093 48.4293C148.774 48.6307 148.41 48.7512 148.034 48.7804C147.658 48.8097 147.281 48.7469 146.934 48.5973L138.194 44.8433C137.796 44.6718 137.357 44.6152 136.928 44.6801C136.498 44.745 136.096 44.9287 135.766 45.2105C135.435 45.4923 135.19 45.8609 135.059 46.2745C134.927 46.6882 134.914 47.1305 135.02 47.5513L137.356 56.7713C137.449 57.1371 137.451 57.5198 137.363 57.8866C137.274 58.2534 137.099 58.5933 136.85 58.8773L130.576 66.0293C130.29 66.356 130.101 66.7562 130.031 67.1847C129.96 67.6132 130.011 68.0529 130.178 68.454C130.344 68.8551 130.62 69.2015 130.973 69.4541C131.326 69.7068 131.743 69.8554 132.177 69.8833L141.666 70.5133C142.043 70.5384 142.408 70.6544 142.729 70.8516C143.051 71.0488 143.32 71.3212 143.513 71.6453L148.377 79.8193C148.598 80.1921 148.92 80.4954 149.306 80.6948C149.691 80.8943 150.124 80.982 150.557 80.9481C150.989 80.9142 151.404 80.76 151.753 80.5029C152.103 80.2458 152.373 79.8961 152.535 79.4933L156.067 70.6613C156.207 70.312 156.431 70.0021 156.718 69.7582C157.005 69.5143 157.347 69.3438 157.714 69.2613L166.992 67.1633C167.416 67.0674 167.804 66.855 168.112 66.5501C168.421 66.2452 168.639 65.86 168.74 65.438C168.841 65.0161 168.823 64.5742 168.686 64.1623C168.549 63.7504 168.3 63.385 167.966 63.1073L160.658 57.0193C160.369 56.7782 160.142 56.4701 159.997 56.1216C159.853 55.7732 159.796 55.3949 159.83 55.0193L160.692 45.5413Z" stroke="#CA3A6C" stroke-width="3" stroke-linecap="round" stroke-linejoin="round"/>
<path d="M190.037 92.6221C190.227 92.3478 190.336 92.0257 190.352 91.6924C190.368 91.3592 190.291 91.028 190.129 90.7365C189.966 90.4451 189.725 90.2049 189.433 90.0433C189.142 89.8817 188.81 89.8051 188.477 89.8221L181.189 90.1941C180.9 90.2092 180.611 90.1535 180.348 90.0319C180.086 89.9103 179.857 89.7264 179.681 89.4961L175.241 83.6961C175.038 83.4328 174.766 83.2313 174.455 83.1143C174.144 82.9973 173.806 82.9694 173.48 83.0339C173.154 83.0983 172.852 83.2525 172.609 83.479C172.366 83.7055 172.19 83.9954 172.103 84.3161L170.203 91.3641C170.126 91.6426 169.984 91.8986 169.787 92.1106C169.591 92.3225 169.347 92.4843 169.075 92.5821L162.195 95.0121C161.88 95.122 161.602 95.318 161.393 95.5778C161.184 95.8376 161.053 96.1509 161.013 96.482C160.973 96.8131 161.027 97.1487 161.168 97.4506C161.31 97.7526 161.533 98.0088 161.813 98.1901L167.927 102.178C168.17 102.336 168.37 102.55 168.511 102.803C168.653 103.056 168.73 103.339 168.737 103.628L168.923 110.924C168.931 111.257 169.032 111.581 169.215 111.859C169.398 112.138 169.655 112.359 169.957 112.499C170.259 112.639 170.595 112.691 170.925 112.651C171.255 112.61 171.568 112.477 171.827 112.268L177.507 107.682C177.733 107.501 177.999 107.378 178.283 107.322C178.566 107.266 178.859 107.279 179.137 107.36L186.137 109.438C186.456 109.534 186.796 109.538 187.117 109.45C187.439 109.362 187.729 109.186 187.956 108.942C188.182 108.697 188.335 108.394 188.398 108.067C188.461 107.739 188.431 107.401 188.311 107.09L185.711 100.274C185.608 100.004 185.572 99.7119 185.607 99.4244C185.641 99.1368 185.746 98.8621 185.911 98.6241L190.037 92.6221Z" stroke="#CA3A6C" stroke-width="3" stroke-linecap="round" stroke-linejoin="round"/>
</svg>
